<svg width="512" height="512" viewBox="0 0 512 512" fill="none" xmlns="http://www.w3.org/2000/svg">
<path d="M172.14 400.836C180.976 400.836 188.14 393.672 188.14 384.836C188.14 375.999 180.976 368.836 172.14 368.836C163.303 368.836 156.14 375.999 156.14 384.836C156.14 393.672 163.303 400.836 172.14 400.836Z" fill="#F16C7A"/>
<path d="M172.14 365.836C161.664 365.836 153.14 374.36 153.14 384.836C153.14 395.312 161.664 403.836 172.14 403.836C182.616 403.836 191.14 395.312 191.14 384.836C191.14 374.36 182.616 365.836 172.14 365.836ZM172.14 397.836C164.972 397.836 159.14 392.004 159.14 384.836C159.14 377.668 164.972 371.836 172.14 371.836C179.308 371.836 185.14 377.668 185.14 384.836C185.14 392.004 179.308 397.836 172.14 397.836Z" fill="#FFF0E5"/>
<path d="M236.14 330.836C244.976 330.836 252.14 323.672 252.14 314.836C252.14 305.999 244.976 298.836 236.14 298.836C227.303 298.836 220.14 305.999 220.14 314.836C220.14 323.672 227.303 330.836 236.14 330.836Z" fill="#87796F"/>
<path d="M236.14 295.836C225.664 295.836 217.14 304.36 217.14 314.836C217.14 325.312 225.664 333.836 236.14 333.836C246.616 333.836 255.14 325.312 255.14 314.836C255.14 304.36 246.616 295.836 236.14 295.836ZM236.14 327.836C228.972 327.836 223.14 322.004 223.14 314.836C223.14 307.668 228.972 301.836 236.14 301.836C243.308 301.836 249.14 307.668 249.14 314.836C249.14 322.004 243.308 327.836 236.14 327.836Z" fill="#FFF0E5"/>
<path d="M126.14 322.836C134.976 322.836 142.14 315.672 142.14 306.836C142.14 297.999 134.976 290.836 126.14 290.836C117.303 290.836 110.14 297.999 110.14 306.836C110.14 315.672 117.303 322.836 126.14 322.836Z" fill="#D7E057"/>
<path d="M126.14 287.836C115.664 287.836 107.14 296.36 107.14 306.836C107.14 317.312 115.664 325.836 126.14 325.836C136.616 325.836 145.14 317.312 145.14 306.836C145.14 296.36 136.616 287.836 126.14 287.836V287.836ZM126.14 319.836C118.972 319.836 113.14 314.004 113.14 306.836C113.14 299.668 118.972 293.836 126.14 293.836C133.308 293.836 139.14 299.668 139.14 306.836C139.14 314.004 133.308 319.836 126.14 319.836V319.836Z" fill="#FFF0E5"/>
<path d="M166.14 252.836C174.976 252.836 182.14 245.672 182.14 236.836C182.14 227.999 174.976 220.836 166.14 220.836C157.303 220.836 150.14 227.999 150.14 236.836C150.14 245.672 157.303 252.836 166.14 252.836Z" fill="#8AC6DD"/>
<path d="M166.14 217.836C155.664 217.836 147.14 226.36 147.14 236.836C147.14 247.312 155.664 255.836 166.14 255.836C176.616 255.836 185.14 247.312 185.14 236.836C185.14 226.36 176.616 217.836 166.14 217.836ZM166.14 249.836C158.972 249.836 153.14 244.004 153.14 236.836C153.14 229.668 158.972 223.836 166.14 223.836C173.308 223.836 179.14 229.668 179.14 236.836C179.14 244.004 173.308 249.836 166.14 249.836Z" fill="#FFF0E5"/>
<path d="M477.888 453.086H58.8879V32.0859C58.8879 30.4279 57.5459 29.0859 55.8879 29.0859C54.2299 29.0859 52.8879 30.4279 52.8879 32.0859V456.086C52.8879 457.744 54.2299 459.086 55.8879 459.086H477.888C479.544 459.086 480.888 457.744 480.888 456.086C480.888 454.428 479.544 453.086 477.888 453.086Z" fill="#FFF0E5"/>
<path d="M55.8899 453.086C54.2319 453.086 52.8899 454.428 52.8899 456.086V479.586C52.8899 481.244 54.2319 482.586 55.8899 482.586C57.5479 482.586 58.8899 481.244 58.8899 479.586V456.086C58.8899 454.428 57.5459 453.086 55.8899 453.086Z" fill="#FFF0E5"/>
<path d="M122.83 453.086C121.172 453.086 119.83 454.428 119.83 456.086V479.586C119.83 481.244 121.172 482.586 122.83 482.586C124.488 482.586 125.83 481.244 125.83 479.586V456.086C125.83 454.428 124.486 453.086 122.83 453.086Z" fill="#FFF0E5"/>
<path d="M189.75 453.086C188.092 453.086 186.75 454.428 186.75 456.086V479.586C186.75 481.244 188.092 482.586 189.75 482.586C191.408 482.586 192.75 481.244 192.75 479.586V456.086C192.75 454.428 191.408 453.086 189.75 453.086Z" fill="#FFF0E5"/>
<path d="M256.69 453.086C255.032 453.086 253.69 454.428 253.69 456.086V479.586C253.69 481.244 255.032 482.586 256.69 482.586C258.346 482.586 259.69 481.244 259.69 479.586V456.086C259.69 454.428 258.346 453.086 256.69 453.086Z" fill="#FFF0E5"/>
<path d="M323.61 453.086C321.954 453.086 320.61 454.428 320.61 456.086V479.586C320.61 481.244 321.954 482.586 323.61 482.586C325.266 482.586 326.61 481.244 326.61 479.586V456.086C326.61 454.428 325.266 453.086 323.61 453.086Z" fill="#FFF0E5"/>
<path d="M390.548 453.086C388.892 453.086 387.548 454.428 387.548 456.086V479.586C387.548 481.244 388.892 482.586 390.548 482.586C392.204 482.586 393.548 481.244 393.548 479.586V456.086C393.548 454.428 392.204 453.086 390.548 453.086Z" fill="#FFF0E5"/>
<path d="M457.468 453.086C455.812 453.086 454.468 454.428 454.468 456.086V479.586C454.468 481.244 455.812 482.586 457.468 482.586C459.124 482.586 460.468 481.244 460.468 479.586V456.086C460.468 454.428 459.126 453.086 457.468 453.086Z" fill="#FFF0E5"/>
<path d="M55.8899 453.086H32.3899C30.7319 453.086 29.3899 454.428 29.3899 456.086C29.3899 457.744 30.7319 459.086 32.3899 459.086H55.8899C57.5479 459.086 58.8899 457.744 58.8899 456.086C58.8899 454.428 57.5459 453.086 55.8899 453.086Z" fill="#FFF0E5"/>
<path d="M55.8899 386.146H32.3899C30.7319 386.146 29.3899 387.488 29.3899 389.146C29.3899 390.804 30.7319 392.146 32.3899 392.146H55.8899C57.5479 392.146 58.8899 390.804 58.8899 389.146C58.8899 387.49 57.5459 386.146 55.8899 386.146Z" fill="#FFF0E5"/>
<path d="M55.8899 319.226H32.3899C30.7319 319.226 29.3899 320.568 29.3899 322.226C29.3899 323.884 30.7319 325.226 32.3899 325.226H55.8899C57.5479 325.226 58.8899 323.884 58.8899 322.226C58.8899 320.568 57.5459 319.226 55.8899 319.226Z" fill="#FFF0E5"/>
<path d="M55.8899 252.286H32.3899C30.7319 252.286 29.3899 253.628 29.3899 255.286C29.3899 256.944 30.7319 258.286 32.3899 258.286H55.8899C57.5479 258.286 58.8899 256.944 58.8899 255.286C58.8899 253.63 57.5459 252.286 55.8899 252.286Z" fill="#FFF0E5"/>
<path d="M55.8899 185.366H32.3899C30.7319 185.366 29.3899 186.708 29.3899 188.366C29.3899 190.024 30.7319 191.366 32.3899 191.366H55.8899C57.5479 191.366 58.8899 190.024 58.8899 188.366C58.8899 186.708 57.5459 185.366 55.8899 185.366Z" fill="#FFF0E5"/>
<path d="M55.8899 118.426H32.3899C30.7319 118.426 29.3899 119.768 29.3899 121.426C29.3899 123.084 30.7319 124.426 32.3899 124.426H55.8899C57.5479 124.426 58.8899 123.084 58.8899 121.426C58.8899 119.768 57.5459 118.426 55.8899 118.426Z" fill="#FFF0E5"/>
<path d="M55.8899 51.5059H32.3899C30.7319 51.5059 29.3899 52.8479 29.3899 54.5059C29.3899 56.1639 30.7319 57.5059 32.3899 57.5059H55.8899C57.5479 57.5059 58.8899 56.1639 58.8899 54.5059C58.8899 52.8479 57.5459 51.5059 55.8899 51.5059Z" fill="#FFF0E5"/>
<path d="M454.078 52.2764C452.13 75.4044 428.03 79.0564 428.03 79.0564C448.724 80.0304 453.88 107.174 453.88 107.174C454.322 87.8204 480.522 78.7704 480.522 78.7704C460.894 77.5944 454.078 52.2764 454.078 52.2764V52.2764Z" fill="#D7E057"/>
<path d="M480.702 75.7738C463.494 74.7458 457.038 51.7258 456.976 51.4938C456.596 50.0898 455.278 49.1758 453.808 49.2898C452.358 49.4218 451.212 50.5738 451.09 52.0238C449.372 72.4538 428.464 75.9498 427.582 76.0878C426.056 76.3178 424.956 77.6678 425.036 79.2098C425.116 80.7498 426.35 81.9778 427.892 82.0518C445.946 82.9018 450.888 107.49 450.934 107.738C451.21 109.16 452.454 110.172 453.88 110.172C453.964 110.172 454.048 110.17 454.132 110.162C455.66 110.034 456.846 108.776 456.882 107.242C457.27 90.2238 481.264 81.6878 481.508 81.6038C482.86 81.1338 483.692 79.7738 483.496 78.3578C483.294 76.9418 482.128 75.8598 480.702 75.7738V75.7738ZM453.568 96.4659C450.854 90.2059 446.15 82.6518 438.394 78.7118C444.256 75.9018 451.212 70.8858 454.798 62.1658C457.9 68.3078 463.198 75.9258 471.466 79.6098C465.454 82.8918 457.62 88.4239 453.568 96.4659Z" fill="#FFF0E5"/>
<path d="M410.68 86.2383C409.302 102.596 392.256 105.178 392.256 105.178C406.892 105.866 410.54 125.066 410.54 125.066C410.852 111.378 429.384 104.976 429.384 104.976C415.502 104.146 410.68 86.2383 410.68 86.2383Z" fill="#D7E057"/>
<path d="M429.564 101.98C418.03 101.29 413.62 85.6105 413.578 85.4525C413.198 84.0485 411.846 83.1305 410.414 83.2485C408.962 83.3785 407.814 84.5325 407.692 85.9845C406.534 99.7265 392.398 102.116 391.808 102.21C390.282 102.44 389.182 103.79 389.262 105.33C389.342 106.87 390.576 108.098 392.118 108.172C404.188 108.74 407.566 125.46 407.596 125.624C407.868 127.048 409.114 128.064 410.542 128.064C410.624 128.064 410.708 128.062 410.792 128.054C412.322 127.928 413.508 126.666 413.544 125.132C413.804 113.714 430.206 107.864 430.368 107.808C431.72 107.34 432.554 105.982 432.36 104.564C432.162 103.15 430.992 102.066 429.564 101.98V101.98ZM410.394 115.572C408.546 111.8 405.714 107.678 401.5 105.012C405.21 102.928 408.894 99.7525 411.242 95.1785C413.356 98.9245 416.55 103.086 421.124 105.626C417.424 107.828 413.146 111.106 410.394 115.572Z" fill="#FFF0E5"/>
<path d="M410.68 32.9219C409.302 49.2799 392.256 51.8639 392.256 51.8639C406.892 52.5519 410.54 71.7519 410.54 71.7519C410.852 58.0619 429.384 51.6619 429.384 51.6619C415.502 50.8299 410.68 32.9219 410.68 32.9219Z" fill="#D7E057"/>
<path d="M429.564 48.6658C418.03 47.9758 413.62 32.2958 413.578 32.1358C413.198 30.7318 411.846 29.8158 410.414 29.9318C408.962 30.0618 407.814 31.2158 407.692 32.6678C406.534 46.4098 392.398 48.8018 391.808 48.8958C390.282 49.1258 389.182 50.4758 389.262 52.0178C389.342 53.5578 390.576 54.7858 392.118 54.8598C404.188 55.4278 407.566 72.1477 407.596 72.3117C407.868 73.7377 409.114 74.7518 410.542 74.7518C410.624 74.7518 410.708 74.7497 410.792 74.7417C412.322 74.6157 413.508 73.3538 413.544 71.8198C413.804 60.3998 430.206 54.5518 430.368 54.4958C431.72 54.0278 432.554 52.6698 432.36 51.2518C432.162 49.8338 430.992 48.7518 429.564 48.6658V48.6658ZM410.394 62.2558C408.546 58.4858 405.714 54.3618 401.5 51.6958C405.21 49.6138 408.894 46.4358 411.242 41.8618C413.356 45.6098 416.55 49.7718 421.124 52.3098C417.426 54.5118 413.146 57.7918 410.394 62.2558V62.2558Z" fill="#FFF0E5"/>
<path d="M419.76 416.214L216.26 212.714C215.088 211.542 213.19 211.542 212.018 212.714C210.846 213.886 210.846 215.786 212.018 216.956L415.518 420.456C416.104 421.042 416.872 421.336 417.638 421.336C418.404 421.336 419.174 421.044 419.76 420.456C420.932 419.286 420.932 417.386 419.76 416.214V416.214Z" fill="#FFF0E5"/>
<path d="M198.608 195.062L94.7599 91.214C93.5879 90.042 91.6899 90.042 90.5179 91.214C89.3459 92.384 89.3459 94.286 90.5179 95.456L194.364 199.304C194.95 199.89 195.718 200.184 196.486 200.184C197.254 200.184 198.022 199.892 198.608 199.304C199.78 198.134 199.78 196.234 198.608 195.062V195.062Z" fill="#FFF0E5"/>
<path d="M240.14 134.836H272.14V166.836H240.14V134.836Z" fill="#D7E057"/>
<path d="M272.138 131.836H240.138C238.48 131.836 237.138 133.178 237.138 134.836V166.836C237.138 168.494 238.48 169.836 240.138 169.836H272.138C273.794 169.836 275.138 168.494 275.138 166.836V134.836C275.138 133.178 273.794 131.836 272.138 131.836ZM269.138 163.836H243.138V137.836H269.138V163.836Z" fill="#FFF0E5"/>
<path d="M422.14 212.836H454.14V244.836H422.14V212.836Z" fill="#87796F"/>
<path d="M454.138 209.836H422.138C420.482 209.836 419.138 211.178 419.138 212.836V244.836C419.138 246.494 420.482 247.836 422.138 247.836H454.138C455.794 247.836 457.138 246.494 457.138 244.836V212.836C457.138 211.178 455.794 209.836 454.138 209.836ZM451.138 241.836H425.138V215.836H451.138V241.836Z" fill="#FFF0E5"/>
<path d="M342.14 252.836H374.14V284.836H342.14V252.836Z" fill="#F16C7A"/>
<path d="M374.138 249.836H342.138C340.482 249.836 339.138 251.178 339.138 252.836V284.836C339.138 286.494 340.482 287.836 342.138 287.836H374.138C375.794 287.836 377.138 286.494 377.138 284.836V252.836C377.138 251.178 375.794 249.836 374.138 249.836ZM371.138 281.836H345.138V255.836H371.138V281.836Z" fill="#FFF0E5"/>
<path d="M322.14 164.836H354.14V196.836H322.14V164.836Z" fill="#8AC6DD"/>
<path d="M354.138 161.836H322.138C320.482 161.836 319.138 163.178 319.138 164.836V196.836C319.138 198.494 320.482 199.836 322.138 199.836H354.138C355.794 199.836 357.138 198.494 357.138 196.836V164.836C357.138 163.178 355.794 161.836 354.138 161.836ZM351.138 193.836H325.138V167.836H351.138V193.836Z" fill="#FFF0E5"/>
</svg>
